<svg xmlns="http://www.w3.org/2000/svg" viewBox="0 0 32 32" width="32" height="32">
  <path fill="#03A9F4" d="M16 2c-3.94 0-7.22 2.07-9.19 5.04C4.21 7.35 2 9.95 2 13c0 3.31 2.69 6 6 6h1.17c.45 1.79 1.47 3.37 2.83 4.55V28c0 1.1.9 2 2 2s2-.9 2-2v-4.45c1.36-1.18 2.38-2.76 2.83-4.55H24c3.31 0 6-2.69 6-6 0-3.05-2.21-5.65-4.81-5.96C23.22 4.07 19.94 2 16 2zm0 2c2.7 0 5.06 1.49 6.42 3.66-.2.02-.4.04-.61.04H9.19c-.21 0-.41-.02-.61-.04C9.94 5.49 12.3 4 15 4zm-7 7h14c.21 0 .41.02.61.04.06.2.09.41.09.63 0 1.85-1.03 3.44-2.56 4.33H9.86C8.33 16.41 7.3 14.88 7.21 13.07c0-.22.03-.43.09-.63.2-.02.4-.04.61-.04zM8 15h16c0 1.1-.9 2-2 2H10c-1.1 0-2-.9-2-2z"/>
</svg>
