<svg xmlns="http://www.w3.org/2000/svg" viewBox="0 0 32 32" width="32" height="32">
  <path fill="#FFC107" d="M16 4C9.37 4 4 9.37 4 16s5.37 12 12 12c2.58 0 4.96-.78 6.94-2.12.4-.27.63-.72.63-1.2V10c0-1.1-.9-2-2-2h-2c-1.1 0-2 .9-2 2v10c0 .55-.45 1-1 1s-1-.45-1-1V8c0-2.21-1.79-4-4-4S9 5.79 9 8v10c0 .55-.45 1-1 1s-1-.45-1-1V9c0-1.1-.9-2-2-2s-2 .9-2 2v7c0 4.42 3.58 8 8 8s8-3.58 8-8V8c0-.94-.66-1.73-1.55-1.94C20.96 4.78 18.58 4 16 4zm0 2c1.74 0 3.3.53 4.66 1.42l-1.8 1.8C18.16 8.53 17.12 8 16 8s-2.16.53-2.86 1.22l-1.8-1.8C12.7 6.53 14.26 6 16 6zm-5.5 7c.83 0 1.5.67 1.5 1.5S11.33 16 10.5 16 9 15.33 9 14.5 9.67 13 10.5 13zm11 0c.83 0 1.5.67 1.5 1.5S22.33 16 21.5 16 20 15.33 20 14.5 20.67 13 21.5 13z"/>
</svg>
